<?xml version="1.0" encoding="UTF-8"?><svg id="uuid-74f93e8c-fa02-4f2e-a6c1-e751b5239bd0" xmlns="http://www.w3.org/2000/svg" viewBox="0 0 110.1957 143.8584"><defs><style>.uuid-35a1059d-9c02-42f3-aadc-0c6c769c2f81{fill:#fff;}</style></defs><g id="uuid-8c8bd27d-8043-4941-9d88-d6f16a2175da"><path d="M69.7656,139.6986c-.5216-.6278-.7635-2.9493-2.1952-2.5251-1.2355.3661-.7083,4.0191-2.3195,5.3476-1.3299,1.0966-5.1965,1.7614-6.7959,1.0295-2.6128-1.1956-1.232-4.5666-3.552-5.6097-1.7126,1.4329-.8356,4.3617-2.8894,5.494-1.564.8623-5.7182.1944-7.0631-.9138-1.5564-1.2825-1.1921-6.9176-3.4217-4.9819-1.5607,1.355-.349,3.528-4.5627,3.021-4.8632-.5851-3.4926-3.5951-5.1767-5.5376-1.0148-1.1706-5.0213-1.6882-5.6797-3.8822-1.1827-3.9412,7.2535-15.3657-.0048-17.9856-6.5424-2.3615-16.2037,5.9501-20.6192-3.098-3.2111-6.5801-4.3828-22.6456-2.2163-29.5484.4318-1.3759,1.6217-2.9169,1.9192-4.2061.5326-2.3081-3.6927-15.144-4.308-19.0439C-5.7088,15.4944,25.6086-3.4999,63.7019.5289c35.3684,3.7406,52.0321,25.6308,44.8556,60.9409-.7378,3.6303-4.1775,11.9532-3.5597,14.8524.5079,2.3834,2.3122,5.0367,2.8004,7.9122,1.0008,5.8951-.3835,21.1692-3.3428,26.3274-4.7444,8.2698-13.9455.2797-20.3588,2.593-6.2296,2.2471-.7768,11.6453-.0161,15.4715.9871,4.9647-3.6608,4.3053-5.6652,6.3996-.7662.8006-.663,2.0807-1.1789,3.0303-1.1903,2.191-5.7793,3.6783-7.4707,1.6424ZM45.0233,79.4941c-2.8971-2.5958-13.7424-3.4498-17.6499-3.1899-4.7477.3158-14.6429,2.4555-15.4634,8.2566-1.6557,11.7054,5.0106,20.3324,17.2806,17.672,4.5893-.9951,16.4006-7.6923,18.0254-12.1994,1.1658-3.2338.432-8.1875-2.1927-10.5393ZM65.1783,79.4941c-2.7569,2.4698-3.5395,7.8083-2.0029,11.1148,1.9645,4.2273,13.3357,10.6482,17.8355,11.6238,12.1148,2.6267,18.7596-5.6349,17.2706-17.2792-.9619-7.5227-14.1038-8.9555-20.0546-8.6703-3.0952.1483-10.7845,1.1825-13.0487,3.2108ZM56.5211,114.6874c1.5995,1.3096,1.279,3.2321,4.4847,2.1566,4.4895-1.5061,1.9388-6.9104.7706-10.2926-.7786-2.2545-3.9942-9.9404-5.5158-11.3176-2.4304-2.1997-5.0196,4.5351-5.8611,6.4043-1.1744,2.6087-4.9574,11.6715-3.3573,13.9141.508.712,2.7926,1.677,3.6765,1.6462,2.0447-.0713,3.186-4.6531,5.8024-2.511Z"/><path class="uuid-35a1059d-9c02-42f3-aadc-0c6c769c2f81" d="M65.1783,79.4941c2.2642-2.0284,9.9535-3.0625,13.0487-3.2108,5.9508-.2852,19.0927,1.1477,20.0546,8.6703,1.489,11.6442-5.1558,19.9059-17.2706,17.2792-4.4999-.9757-15.871-7.3966-17.8355-11.6238-1.5366-3.3066-.7541-8.645,2.0029-11.1148Z"/><path class="uuid-35a1059d-9c02-42f3-aadc-0c6c769c2f81" d="M45.0233,79.4941c2.6247,2.3517,3.3585,7.3055,2.1927,10.5393-1.6248,4.5071-13.4361,11.2043-18.0254,12.1994-12.27,2.6604-18.9363-5.9666-17.2806-17.672.8205-5.801,10.7157-7.9408,15.4634-8.2566,3.9074-.2599,14.7528.5941,17.6499,3.1899Z"/><path class="uuid-35a1059d-9c02-42f3-aadc-0c6c769c2f81" d="M56.5211,114.6874c-2.6163-2.1421-3.7576,2.4397-5.8024,2.511-.884.0308-3.1686-.9342-3.6765-1.6462-1.6001-2.2426,2.1829-11.3054,3.3573-13.9141.8415-1.8692,3.4307-8.604,5.8611-6.4043,1.5216,1.3771,4.7372,9.0631,5.5158,11.3176,1.1681,3.3822,3.7188,8.7865-.7706,10.2926-3.2058,1.0755-2.8852-.8471-4.4847-2.1566Z"/></g></svg>